<svg xmlns="http://www.w3.org/2000/svg" viewBox="0 0 97.333336 65.333336" height="65.333" width="97.333"><g fill="#0071c5"><path d="M45.604 57.127C26.631 58.877 6.86 56.12 4.088 41.293c-1.353-7.307 1.98-15.057 6.396-19.874v-2.574C2.53 25.825-1.781 34.653.703 45.085 3.874 58.46 20.839 66.04 46.745 63.523c10.25-.995 23.662-4.292 32.99-9.416v-7.272c-8.47 5.042-22.47 9.209-34.13 10.292zM95.58 18.673C91.079-3.295 48.42-4.69 20.927 12.05v1.848C48.39-.223 87.349-.139 90.896 20.102c1.192 6.691-2.579 13.666-9.317 17.68v5.257c8.104-2.975 16.416-12.59 14-24.366"/><path d="M78.197 15.476h-4.973v22.15c0 2.594 1.255 4.855 4.973 5.214V15.476M18.973 23.564H13.99l-.006 14.47c0 2.609 1.261 4.863 4.99 5.218V23.564M13.99 20.861h4.969v-4.713h-4.97zM48.76 43.023c-4.025 0-5.73-2.803-5.73-5.558V18.247h4.934v5.317h3.713v3.98h-3.713v9.62c0 1.119.53 1.75 1.703 1.75h2.01v4.109H48.76M57.833 34.835c0 2.521 1.579 4.375 4.37 4.375 2.188 0 3.266-.603 4.532-1.854l3.046 2.901c-1.953 1.933-4 3.104-7.614 3.104-4.72 0-9.24-2.573-9.24-10.084 0-6.416 3.953-10.046 9.13-10.046 5.266 0 8.292 4.25 8.292 9.822v1.782H57.833m4.01-7.526c-1.687 0-2.983.87-3.536 2.042-.317.708-.438 1.256-.474 2.12h7.599c-.093-2.12-1.057-4.162-3.588-4.162M32.364 27.544c1.448 0 2.048.713 2.048 1.875v13.63h4.932V29.392c0-2.77-1.475-5.823-5.808-5.823l-10.187-.005v19.485h4.937V27.544h4.078M83.552 19.435a1.97 1.97 0 0 1-1.973-1.98 1.97 1.97 0 0 1 1.973-1.979c1.088 0 1.984.885 1.984 1.979s-.896 1.98-1.984 1.98zm0-3.63a1.64 1.64 0 0 0-1.63 1.65c0 .906.723 1.64 1.63 1.64.901 0 1.65-.734 1.65-1.64 0-.906-.749-1.65-1.65-1.65zm.875 2.832h-.37a.085.085 0 0 1-.073-.046l-.5-.85a.125.125 0 0 0-.072-.041H83.183v.85c0 .04-.027.087-.085.087h-.333c-.046 0-.082-.046-.082-.088v-2.141c0-.125.041-.177.15-.192.12-.01.432-.026.61-.026.614 0 .978.182.978.754v.042c0 .354-.176.547-.448.63l.522.886c.01.015.015.047.015.062 0 .038-.02.073-.083.073zm-.48-1.693c0-.239-.144-.317-.463-.317h-.317v.682c.052 0 .276.01.317.01.319 0 .464-.109.464-.333v-.042"/></g></svg>